<mxfile host="65bd71144e">
    <diagram id="38HoPxayxWLjPCFsXZrD" name="Page-1">
        <mxGraphModel dx="1228" dy="456" grid="1" gridSize="10" guides="1" tooltips="1" connect="1" arrows="1" fold="1" page="1" pageScale="1" pageWidth="850" pageHeight="1100" background="#FAD9D5" math="0" shadow="0">
            <root>
                <mxCell id="0"/>
                <mxCell id="1" parent="0"/>
                <mxCell id="5" value="Start" style="ellipse;html=1;shape=startState;fillColor=#56517E;strokeColor=#EEEEEE;fontColor=#FFFFFF;strokeWidth=4;" vertex="1" parent="1">
                    <mxGeometry x="375" y="70" width="80" height="59" as="geometry"/>
                </mxCell>
                <mxCell id="6" value="" style="edgeStyle=orthogonalEdgeStyle;html=1;verticalAlign=bottom;endArrow=open;endSize=8;strokeColor=#182E3E;entryX=0.5;entryY=0;entryDx=0;entryDy=0;labelBackgroundColor=#FAD9D5;" edge="1" source="5" parent="1" target="7">
                    <mxGeometry relative="1" as="geometry">
                        <mxPoint x="415" y="179" as="targetPoint"/>
                    </mxGeometry>
                </mxCell>
                <mxCell id="7" value="Community Doctor" style="rounded=1;whiteSpace=wrap;html=1;arcSize=40;fontColor=#FFFFFF;fillColor=#56517E;strokeColor=#EEEEEE;strokeWidth=3;" vertex="1" parent="1">
                    <mxGeometry x="355" y="159" width="120" height="40" as="geometry"/>
                </mxCell>
                <mxCell id="9" value="Refer to&lt;br&gt;Hospital" style="rounded=1;whiteSpace=wrap;html=1;arcSize=40;fontColor=#FFFFFF;fillColor=#56517E;strokeColor=#EEEEEE;strokeWidth=3;" vertex="1" parent="1">
                    <mxGeometry x="355" y="249" width="120" height="40" as="geometry"/>
                </mxCell>
                <mxCell id="13" value="" style="edgeStyle=orthogonalEdgeStyle;html=1;verticalAlign=bottom;endArrow=open;endSize=8;strokeColor=#182E3E;entryX=0.5;entryY=0;entryDx=0;entryDy=0;exitX=0.5;exitY=1;exitDx=0;exitDy=0;labelBackgroundColor=#FAD9D5;" edge="1" parent="1" source="7" target="9">
                    <mxGeometry relative="1" as="geometry">
                        <mxPoint x="425" y="169" as="targetPoint"/>
                        <mxPoint x="425" y="119" as="sourcePoint"/>
                    </mxGeometry>
                </mxCell>
                <mxCell id="14" value="Make a patient&lt;br&gt;Diagram" style="rounded=1;whiteSpace=wrap;html=1;arcSize=40;fontColor=#FFFFFF;fillColor=#56517E;strokeColor=#EEEEEE;strokeWidth=2;" vertex="1" parent="1">
                    <mxGeometry x="355" y="339" width="120" height="40" as="geometry"/>
                </mxCell>
                <mxCell id="16" value="" style="edgeStyle=orthogonalEdgeStyle;html=1;verticalAlign=bottom;endArrow=open;endSize=8;strokeColor=#182E3E;entryX=0.5;entryY=0;entryDx=0;entryDy=0;exitX=0.5;exitY=1;exitDx=0;exitDy=0;labelBackgroundColor=#FAD9D5;" edge="1" parent="1" source="9" target="14">
                    <mxGeometry relative="1" as="geometry">
                        <mxPoint x="425" y="259" as="targetPoint"/>
                        <mxPoint x="425" y="209" as="sourcePoint"/>
                    </mxGeometry>
                </mxCell>
                <mxCell id="17" value="Diagnosis" style="rounded=1;whiteSpace=wrap;html=1;arcSize=40;fontColor=#FFFFFF;fillColor=#56517E;strokeColor=#EEEEEE;strokeWidth=3;" vertex="1" parent="1">
                    <mxGeometry x="210" y="339" width="120" height="40" as="geometry"/>
                </mxCell>
                <mxCell id="19" value="" style="edgeStyle=orthogonalEdgeStyle;html=1;verticalAlign=bottom;endArrow=open;endSize=8;strokeColor=#182E3E;entryX=1;entryY=0.5;entryDx=0;entryDy=0;exitX=0;exitY=0.5;exitDx=0;exitDy=0;labelBackgroundColor=#FAD9D5;" edge="1" parent="1" source="14" target="17">
                    <mxGeometry relative="1" as="geometry">
                        <mxPoint x="425" y="349" as="targetPoint"/>
                        <mxPoint x="425" y="299" as="sourcePoint"/>
                    </mxGeometry>
                </mxCell>
                <mxCell id="20" value="Treatment" style="rounded=1;whiteSpace=wrap;html=1;arcSize=40;fontColor=#FFFFFF;fillColor=#56517E;strokeColor=#EEEEEE;strokeWidth=3;" vertex="1" parent="1">
                    <mxGeometry x="90" y="639" width="120" height="40" as="geometry"/>
                </mxCell>
                <mxCell id="24" value="Surgery" style="rounded=1;whiteSpace=wrap;html=1;arcSize=40;fontColor=#FFFFFF;fillColor=#56517E;strokeColor=#EEEEEE;strokeWidth=3;" vertex="1" parent="1">
                    <mxGeometry x="170" y="789" width="120" height="40" as="geometry"/>
                </mxCell>
                <mxCell id="25" value="Medication" style="rounded=1;whiteSpace=wrap;html=1;arcSize=40;fontColor=#FFFFFF;fillColor=#56517E;strokeColor=#EEEEEE;strokeWidth=2;" vertex="1" parent="1">
                    <mxGeometry x="10" y="780" width="120" height="40" as="geometry"/>
                </mxCell>
                <mxCell id="26" value="" style="edgeStyle=orthogonalEdgeStyle;html=1;verticalAlign=bottom;endArrow=open;endSize=8;strokeColor=#182E3E;exitX=0.25;exitY=0.5;exitDx=0;exitDy=0;exitPerimeter=0;labelBackgroundColor=#FAD9D5;entryX=0.5;entryY=0;entryDx=0;entryDy=0;" edge="1" parent="1" source="30" target="25">
                    <mxGeometry relative="1" as="geometry">
                        <mxPoint x="60" y="789" as="targetPoint"/>
                        <mxPoint x="150" y="859" as="sourcePoint"/>
                        <Array as="points">
                            <mxPoint x="100" y="734"/>
                            <mxPoint x="100" y="749"/>
                            <mxPoint x="60" y="749"/>
                        </Array>
                    </mxGeometry>
                </mxCell>
                <mxCell id="27" value="" style="edgeStyle=orthogonalEdgeStyle;html=1;verticalAlign=bottom;endArrow=open;endSize=8;strokeColor=#182E3E;exitX=0.5;exitY=1;exitDx=0;exitDy=0;entryX=0.25;entryY=0.5;entryDx=0;entryDy=0;entryPerimeter=0;labelBackgroundColor=#FAD9D5;" edge="1" parent="1" source="20" target="30">
                    <mxGeometry relative="1" as="geometry">
                        <mxPoint x="140" y="704" as="targetPoint"/>
                        <mxPoint x="475" y="489" as="sourcePoint"/>
                    </mxGeometry>
                </mxCell>
                <mxCell id="29" value="make Prescription" style="rounded=1;whiteSpace=wrap;html=1;arcSize=40;fontColor=#FFFFFF;fillColor=#56517E;strokeColor=#EEEEEE;strokeWidth=3;" vertex="1" parent="1">
                    <mxGeometry x="90" y="959" width="120" height="40" as="geometry"/>
                </mxCell>
                <mxCell id="30" value="" style="shape=line;html=1;strokeWidth=6;fillColor=#56517E;fontColor=#FFFFFF;strokeColor=#CC6600;" vertex="1" parent="1">
                    <mxGeometry x="60" y="729" width="200" height="10" as="geometry"/>
                </mxCell>
                <mxCell id="32" value="" style="edgeStyle=orthogonalEdgeStyle;html=1;verticalAlign=bottom;endArrow=open;endSize=8;strokeColor=#182E3E;exitX=0.75;exitY=0.5;exitDx=0;exitDy=0;exitPerimeter=0;entryX=0.5;entryY=0;entryDx=0;entryDy=0;labelBackgroundColor=#FAD9D5;" edge="1" parent="1" source="30" target="24">
                    <mxGeometry relative="1" as="geometry">
                        <mxPoint x="230" y="759" as="targetPoint"/>
                        <mxPoint x="310" y="729" as="sourcePoint"/>
                    </mxGeometry>
                </mxCell>
                <mxCell id="33" value="" style="shape=line;html=1;strokeWidth=6;fillColor=#56517E;fontColor=#FFFFFF;strokeColor=#CC6600;" vertex="1" parent="1">
                    <mxGeometry x="45" y="869" width="210" height="10" as="geometry"/>
                </mxCell>
                <mxCell id="35" value="" style="edgeStyle=orthogonalEdgeStyle;html=1;verticalAlign=bottom;endArrow=open;endSize=8;strokeColor=#182E3E;entryX=0.25;entryY=0.5;entryDx=0;entryDy=0;entryPerimeter=0;labelBackgroundColor=#FAD9D5;exitX=0.5;exitY=1;exitDx=0;exitDy=0;" edge="1" parent="1" source="25" target="33">
                    <mxGeometry relative="1" as="geometry">
                        <mxPoint x="160" y="969" as="targetPoint"/>
                        <mxPoint x="60" y="829" as="sourcePoint"/>
                        <Array as="points"/>
                    </mxGeometry>
                </mxCell>
                <mxCell id="36" value="" style="edgeStyle=orthogonalEdgeStyle;html=1;verticalAlign=bottom;endArrow=open;endSize=8;strokeColor=#182E3E;entryX=0.75;entryY=0.5;entryDx=0;entryDy=0;entryPerimeter=0;exitX=0.5;exitY=1;exitDx=0;exitDy=0;labelBackgroundColor=#FAD9D5;" edge="1" parent="1" source="24" target="33">
                    <mxGeometry relative="1" as="geometry">
                        <mxPoint x="300" y="939" as="targetPoint"/>
                        <mxPoint x="300" y="859" as="sourcePoint"/>
                        <Array as="points"/>
                    </mxGeometry>
                </mxCell>
                <mxCell id="37" value="Dicission" style="rhombus;whiteSpace=wrap;html=1;fillColor=#56517E;strokeColor=#EEEEEE;fontColor=#FFFFFF;strokeWidth=2;" vertex="1" parent="1">
                    <mxGeometry x="200" y="429" width="140" height="70" as="geometry"/>
                </mxCell>
                <mxCell id="39" value="&lt;b&gt;Treatment&lt;/b&gt;" style="edgeStyle=orthogonalEdgeStyle;html=1;align=left;verticalAlign=top;endArrow=open;endSize=8;strokeColor=#182E3E;exitX=0;exitY=0.5;exitDx=0;exitDy=0;labelBackgroundColor=#FAD9D5;entryX=0.5;entryY=0;entryDx=0;entryDy=0;" edge="1" source="37" parent="1" target="82">
                    <mxGeometry x="0.052" y="-47" relative="1" as="geometry">
                        <mxPoint x="150" y="520" as="targetPoint"/>
                        <Array as="points">
                            <mxPoint x="150" y="464"/>
                        </Array>
                        <mxPoint x="7" y="-24" as="offset"/>
                    </mxGeometry>
                </mxCell>
                <mxCell id="40" value="&lt;b&gt;Admission&lt;/b&gt;" style="edgeStyle=orthogonalEdgeStyle;html=1;align=left;verticalAlign=top;endArrow=open;endSize=8;strokeColor=#182E3E;exitX=1;exitY=0.5;exitDx=0;exitDy=0;entryX=0.5;entryY=0;entryDx=0;entryDy=0;labelBackgroundColor=#FAD9D5;" edge="1" parent="1" source="37" target="45">
                    <mxGeometry x="-0.6192" relative="1" as="geometry">
                        <mxPoint x="510" y="504" as="targetPoint"/>
                        <mxPoint x="510" y="454" as="sourcePoint"/>
                        <mxPoint as="offset"/>
                    </mxGeometry>
                </mxCell>
                <mxCell id="41" value="" style="edgeStyle=orthogonalEdgeStyle;html=1;verticalAlign=bottom;endArrow=open;endSize=8;strokeColor=#182E3E;exitX=0.5;exitY=1;exitDx=0;exitDy=0;entryX=0.5;entryY=0;entryDx=0;entryDy=0;labelBackgroundColor=#FAD9D5;" edge="1" parent="1" source="17" target="37">
                    <mxGeometry relative="1" as="geometry">
                        <mxPoint x="300" y="419" as="targetPoint"/>
                        <mxPoint x="260" y="394" as="sourcePoint"/>
                    </mxGeometry>
                </mxCell>
                <mxCell id="42" value="&lt;font color=&quot;#ffffff&quot;&gt;End&lt;/font&gt;" style="ellipse;html=1;shape=endState;strokeColor=#EEEEEE;fontColor=#FFFFFF;strokeWidth=4;fillColor=#FF3333;" vertex="1" parent="1">
                    <mxGeometry x="117" y="1079" width="65" height="60" as="geometry"/>
                </mxCell>
                <mxCell id="44" value="" style="edgeStyle=orthogonalEdgeStyle;html=1;verticalAlign=bottom;endArrow=open;endSize=8;strokeColor=#182E3E;entryX=0.5;entryY=0;entryDx=0;entryDy=0;exitX=0.5;exitY=1;exitDx=0;exitDy=0;labelBackgroundColor=#FAD9D5;" edge="1" parent="1" source="29" target="42">
                    <mxGeometry relative="1" as="geometry">
                        <mxPoint x="160" y="969" as="targetPoint"/>
                        <mxPoint x="160" y="889" as="sourcePoint"/>
                        <Array as="points"/>
                    </mxGeometry>
                </mxCell>
                <mxCell id="45" value="Hospital&lt;br&gt;Doctor" style="rounded=1;whiteSpace=wrap;html=1;arcSize=40;fontColor=#FFFFFF;fillColor=#56517E;strokeColor=#EEEEEE;strokeWidth=3;" vertex="1" parent="1">
                    <mxGeometry x="460" y="519" width="120" height="40" as="geometry"/>
                </mxCell>
                <mxCell id="46" value="Ward" style="rounded=1;whiteSpace=wrap;html=1;arcSize=40;fontColor=#FFFFFF;fillColor=#56517E;strokeColor=#EEEEEE;strokeWidth=3;" vertex="1" parent="1">
                    <mxGeometry x="380" y="659" width="120" height="40" as="geometry"/>
                </mxCell>
                <mxCell id="47" value="Refer&lt;br&gt;Doctor" style="rounded=1;whiteSpace=wrap;html=1;arcSize=40;fontColor=#FFFFFF;fillColor=#56517E;strokeColor=#EEEEEE;strokeWidth=3;" vertex="1" parent="1">
                    <mxGeometry x="560" y="659" width="120" height="40" as="geometry"/>
                </mxCell>
                <mxCell id="48" value="" style="shape=line;html=1;strokeWidth=6;fillColor=#56517E;fontColor=#FFFFFF;strokeColor=#CC6600;" vertex="1" parent="1">
                    <mxGeometry x="425" y="599" width="200" height="10" as="geometry"/>
                </mxCell>
                <mxCell id="50" value="" style="edgeStyle=orthogonalEdgeStyle;html=1;verticalAlign=bottom;endArrow=open;endSize=8;strokeColor=#182E3E;entryX=0.5;entryY=0;entryDx=0;entryDy=0;exitX=0.25;exitY=0.5;exitDx=0;exitDy=0;exitPerimeter=0;labelBackgroundColor=#FAD9D5;" edge="1" parent="1" source="48" target="46">
                    <mxGeometry relative="1" as="geometry">
                        <mxPoint x="160" y="839" as="targetPoint"/>
                        <mxPoint x="160" y="759" as="sourcePoint"/>
                        <Array as="points"/>
                    </mxGeometry>
                </mxCell>
                <mxCell id="51" value="" style="edgeStyle=orthogonalEdgeStyle;html=1;verticalAlign=bottom;endArrow=open;endSize=8;strokeColor=#182E3E;entryX=0.25;entryY=0.5;entryDx=0;entryDy=0;exitX=0.5;exitY=1;exitDx=0;exitDy=0;entryPerimeter=0;labelBackgroundColor=#FAD9D5;" edge="1" parent="1" source="45" target="48">
                    <mxGeometry relative="1" as="geometry">
                        <mxPoint x="170" y="849" as="targetPoint"/>
                        <mxPoint x="170" y="769" as="sourcePoint"/>
                        <Array as="points"/>
                    </mxGeometry>
                </mxCell>
                <mxCell id="53" value="" style="edgeStyle=orthogonalEdgeStyle;html=1;verticalAlign=bottom;endArrow=open;endSize=8;strokeColor=#182E3E;entryX=0.5;entryY=0;entryDx=0;entryDy=0;exitX=0.75;exitY=0.5;exitDx=0;exitDy=0;exitPerimeter=0;labelBackgroundColor=#FAD9D5;" edge="1" parent="1" source="48" target="47">
                    <mxGeometry relative="1" as="geometry">
                        <mxPoint x="450" y="669" as="targetPoint"/>
                        <mxPoint x="485" y="614" as="sourcePoint"/>
                        <Array as="points"/>
                    </mxGeometry>
                </mxCell>
                <mxCell id="58" value="Treatment" style="rounded=1;whiteSpace=wrap;html=1;arcSize=40;fontColor=#FFFFFF;fillColor=#56517E;strokeColor=#EEEEEE;strokeWidth=3;" vertex="1" parent="1">
                    <mxGeometry x="470" y="801" width="120" height="40" as="geometry"/>
                </mxCell>
                <mxCell id="59" value="Surgery" style="rounded=1;whiteSpace=wrap;html=1;arcSize=40;fontColor=#FFFFFF;fillColor=#56517E;strokeColor=#EEEEEE;strokeWidth=3;" vertex="1" parent="1">
                    <mxGeometry x="550" y="951" width="120" height="40" as="geometry"/>
                </mxCell>
                <mxCell id="60" value="Medication" style="rounded=1;whiteSpace=wrap;html=1;arcSize=40;fontColor=#FFFFFF;fillColor=#56517E;strokeColor=#EEEEEE;strokeWidth=2;" vertex="1" parent="1">
                    <mxGeometry x="380" y="951" width="120" height="40" as="geometry"/>
                </mxCell>
                <mxCell id="61" value="" style="edgeStyle=orthogonalEdgeStyle;html=1;verticalAlign=bottom;endArrow=open;endSize=8;strokeColor=#182E3E;entryX=0.5;entryY=0;entryDx=0;entryDy=0;exitX=0.25;exitY=0.5;exitDx=0;exitDy=0;exitPerimeter=0;labelBackgroundColor=#FAD9D5;" edge="1" source="65" target="60" parent="1">
                    <mxGeometry relative="1" as="geometry">
                        <mxPoint x="500" y="1021" as="targetPoint"/>
                        <mxPoint x="530" y="1021" as="sourcePoint"/>
                        <Array as="points">
                            <mxPoint x="480" y="911"/>
                            <mxPoint x="440" y="911"/>
                        </Array>
                    </mxGeometry>
                </mxCell>
                <mxCell id="62" value="" style="edgeStyle=orthogonalEdgeStyle;html=1;verticalAlign=bottom;endArrow=open;endSize=8;strokeColor=#182E3E;exitX=0.5;exitY=1;exitDx=0;exitDy=0;entryX=0.25;entryY=0.5;entryDx=0;entryDy=0;entryPerimeter=0;labelBackgroundColor=#FAD9D5;" edge="1" source="58" target="65" parent="1">
                    <mxGeometry relative="1" as="geometry">
                        <mxPoint x="520" y="866" as="targetPoint"/>
                        <mxPoint x="855" y="651" as="sourcePoint"/>
                    </mxGeometry>
                </mxCell>
                <mxCell id="64" value="make Prescription" style="rounded=1;whiteSpace=wrap;html=1;arcSize=40;fontColor=#FFFFFF;fillColor=#56517E;strokeColor=#EEEEEE;strokeWidth=3;" vertex="1" parent="1">
                    <mxGeometry x="417" y="1189" width="120" height="40" as="geometry"/>
                </mxCell>
                <mxCell id="65" value="" style="shape=line;html=1;strokeWidth=6;fillColor=#56517E;fontColor=#FFFFFF;strokeColor=#CC6600;" vertex="1" parent="1">
                    <mxGeometry x="440" y="891" width="200" height="10" as="geometry"/>
                </mxCell>
                <mxCell id="66" value="" style="edgeStyle=orthogonalEdgeStyle;html=1;verticalAlign=bottom;endArrow=open;endSize=8;strokeColor=#182E3E;exitX=0.75;exitY=0.5;exitDx=0;exitDy=0;exitPerimeter=0;entryX=0.5;entryY=0;entryDx=0;entryDy=0;labelBackgroundColor=#FAD9D5;" edge="1" source="65" target="59" parent="1">
                    <mxGeometry relative="1" as="geometry">
                        <mxPoint x="610" y="921" as="targetPoint"/>
                        <mxPoint x="690" y="891" as="sourcePoint"/>
                    </mxGeometry>
                </mxCell>
                <mxCell id="67" value="" style="shape=line;html=1;strokeWidth=6;fillColor=#56517E;fontColor=#FFFFFF;strokeColor=#CC6600;" vertex="1" parent="1">
                    <mxGeometry x="425" y="1031" width="210" height="10" as="geometry"/>
                </mxCell>
                <mxCell id="69" value="" style="edgeStyle=orthogonalEdgeStyle;html=1;verticalAlign=bottom;endArrow=open;endSize=8;strokeColor=#182E3E;entryX=0.25;entryY=0.5;entryDx=0;entryDy=0;exitX=0.5;exitY=1;exitDx=0;exitDy=0;entryPerimeter=0;labelBackgroundColor=#FAD9D5;" edge="1" source="60" target="67" parent="1">
                    <mxGeometry relative="1" as="geometry">
                        <mxPoint x="540" y="1131" as="targetPoint"/>
                        <mxPoint x="540" y="1051" as="sourcePoint"/>
                        <Array as="points"/>
                    </mxGeometry>
                </mxCell>
                <mxCell id="70" value="" style="edgeStyle=orthogonalEdgeStyle;html=1;verticalAlign=bottom;endArrow=open;endSize=8;strokeColor=#182E3E;entryX=0.75;entryY=0.5;entryDx=0;entryDy=0;entryPerimeter=0;exitX=0.5;exitY=1;exitDx=0;exitDy=0;labelBackgroundColor=#FAD9D5;" edge="1" source="59" target="67" parent="1">
                    <mxGeometry relative="1" as="geometry">
                        <mxPoint x="680" y="1101" as="targetPoint"/>
                        <mxPoint x="680" y="1021" as="sourcePoint"/>
                        <Array as="points"/>
                    </mxGeometry>
                </mxCell>
                <mxCell id="71" value="&lt;font color=&quot;#ffffff&quot;&gt;End&lt;/font&gt;" style="ellipse;html=1;shape=endState;strokeColor=#EEEEEE;fontColor=#FFFFFF;strokeWidth=4;fillColor=#FF3333;" vertex="1" parent="1">
                    <mxGeometry x="444" y="1261" width="65" height="60" as="geometry"/>
                </mxCell>
                <mxCell id="72" value="" style="edgeStyle=orthogonalEdgeStyle;html=1;verticalAlign=bottom;endArrow=open;endSize=8;strokeColor=#182E3E;entryX=0.5;entryY=0;entryDx=0;entryDy=0;exitX=0.5;exitY=1;exitDx=0;exitDy=0;labelBackgroundColor=#FAD9D5;" edge="1" source="64" target="71" parent="1">
                    <mxGeometry relative="1" as="geometry">
                        <mxPoint x="487" y="1151" as="targetPoint"/>
                        <mxPoint x="487" y="1071" as="sourcePoint"/>
                        <Array as="points"/>
                    </mxGeometry>
                </mxCell>
                <mxCell id="73" value="" style="edgeStyle=orthogonalEdgeStyle;html=1;verticalAlign=bottom;endArrow=open;endSize=8;strokeColor=#182E3E;entryX=0.25;entryY=0.5;entryDx=0;entryDy=0;exitX=0.5;exitY=1;exitDx=0;exitDy=0;entryPerimeter=0;labelBackgroundColor=#FAD9D5;" edge="1" source="46" parent="1" target="74">
                    <mxGeometry relative="1" as="geometry">
                        <mxPoint x="440" y="789" as="targetPoint"/>
                        <mxPoint x="530" y="859" as="sourcePoint"/>
                        <Array as="points">
                            <mxPoint x="440" y="719"/>
                            <mxPoint x="490" y="719"/>
                        </Array>
                    </mxGeometry>
                </mxCell>
                <mxCell id="74" value="" style="shape=line;html=1;strokeWidth=6;fillColor=#56517E;fontColor=#FFFFFF;strokeColor=#CC6600;" vertex="1" parent="1">
                    <mxGeometry x="440" y="745" width="200" height="10" as="geometry"/>
                </mxCell>
                <mxCell id="75" value="" style="edgeStyle=orthogonalEdgeStyle;html=1;verticalAlign=bottom;endArrow=open;endSize=8;strokeColor=#182E3E;exitX=0.5;exitY=1;exitDx=0;exitDy=0;entryX=0.75;entryY=0.5;entryDx=0;entryDy=0;entryPerimeter=0;labelBackgroundColor=#FAD9D5;" edge="1" source="47" parent="1" target="74">
                    <mxGeometry relative="1" as="geometry">
                        <mxPoint x="610" y="789" as="targetPoint"/>
                        <mxPoint x="690" y="729" as="sourcePoint"/>
                    </mxGeometry>
                </mxCell>
                <mxCell id="76" value="" style="edgeStyle=orthogonalEdgeStyle;html=1;verticalAlign=bottom;endArrow=open;endSize=8;strokeColor=#182E3E;exitX=0.75;exitY=0.5;exitDx=0;exitDy=0;entryX=0.5;entryY=0;entryDx=0;entryDy=0;exitPerimeter=0;labelBackgroundColor=#FAD9D5;" edge="1" parent="1" source="74" target="58">
                    <mxGeometry relative="1" as="geometry">
                        <mxPoint x="600" y="744" as="targetPoint"/>
                        <mxPoint x="630" y="709" as="sourcePoint"/>
                    </mxGeometry>
                </mxCell>
                <mxCell id="77" value="Discharge" style="rounded=1;whiteSpace=wrap;html=1;arcSize=40;fontColor=#FFFFFF;fillColor=#56517E;strokeColor=#EEEEEE;strokeWidth=3;" vertex="1" parent="1">
                    <mxGeometry x="417" y="1099" width="120" height="40" as="geometry"/>
                </mxCell>
                <mxCell id="78" value="" style="edgeStyle=orthogonalEdgeStyle;html=1;verticalAlign=bottom;endArrow=open;endSize=8;strokeColor=#182E3E;entryX=0.5;entryY=0;entryDx=0;entryDy=0;exitX=0.25;exitY=0.5;exitDx=0;exitDy=0;exitPerimeter=0;labelBackgroundColor=#FAD9D5;" edge="1" parent="1" source="67" target="77">
                    <mxGeometry relative="1" as="geometry">
                        <mxPoint x="592.5" y="1046" as="targetPoint"/>
                        <mxPoint x="620" y="1001" as="sourcePoint"/>
                        <Array as="points"/>
                    </mxGeometry>
                </mxCell>
                <mxCell id="79" value="" style="edgeStyle=orthogonalEdgeStyle;html=1;verticalAlign=bottom;endArrow=open;endSize=8;strokeColor=#182E3E;entryX=0.5;entryY=0;entryDx=0;entryDy=0;exitX=0.5;exitY=1;exitDx=0;exitDy=0;labelBackgroundColor=#FAD9D5;" edge="1" parent="1" source="77" target="64">
                    <mxGeometry relative="1" as="geometry">
                        <mxPoint x="484.47" y="1182" as="targetPoint"/>
                        <mxPoint x="484.97" y="1119" as="sourcePoint"/>
                        <Array as="points"/>
                    </mxGeometry>
                </mxCell>
                <mxCell id="81" value="&lt;b&gt;&lt;font style=&quot;font-size: 26px&quot; color=&quot;#009999&quot;&gt;&lt;u&gt;Hospital Madical Recode System&amp;nbsp;&lt;/u&gt;&lt;/font&gt;&lt;/b&gt;" style="text;html=1;align=center;verticalAlign=middle;resizable=0;points=[];autosize=1;strokeColor=none;fontColor=#FFFFFF;" vertex="1" parent="1">
                    <mxGeometry x="195" y="20" width="430" height="20" as="geometry"/>
                </mxCell>
                <mxCell id="82" value="Hospital&lt;br&gt;Doctor" style="rounded=1;whiteSpace=wrap;html=1;arcSize=40;fontColor=#FFFFFF;fillColor=#56517E;strokeColor=#EEEEEE;strokeWidth=3;" vertex="1" parent="1">
                    <mxGeometry x="90" y="540" width="120" height="40" as="geometry"/>
                </mxCell>
                <mxCell id="83" value="" style="edgeStyle=orthogonalEdgeStyle;html=1;verticalAlign=bottom;endArrow=open;endSize=8;strokeColor=#182E3E;entryX=0.5;entryY=0;entryDx=0;entryDy=0;exitX=0.5;exitY=1;exitDx=0;exitDy=0;labelBackgroundColor=#FAD9D5;" edge="1" parent="1" source="82" target="20">
                    <mxGeometry relative="1" as="geometry">
                        <mxPoint x="450" y="669" as="targetPoint"/>
                        <mxPoint x="485" y="614" as="sourcePoint"/>
                        <Array as="points"/>
                    </mxGeometry>
                </mxCell>
                <mxCell id="84" value="" style="edgeStyle=orthogonalEdgeStyle;html=1;verticalAlign=bottom;endArrow=open;endSize=8;strokeColor=#182E3E;entryX=0.5;entryY=0;entryDx=0;entryDy=0;exitX=0.217;exitY=0.619;exitDx=0;exitDy=0;labelBackgroundColor=#FAD9D5;exitPerimeter=0;" edge="1" parent="1" source="33" target="29">
                    <mxGeometry relative="1" as="geometry">
                        <mxPoint x="159.5" y="1089" as="targetPoint"/>
                        <mxPoint x="160" y="1009" as="sourcePoint"/>
                        <Array as="points"/>
                    </mxGeometry>
                </mxCell>
            </root>
        </mxGraphModel>
    </diagram>
</mxfile>